<?xml version="1.0" encoding="utf-8"?>
<!-- Generator: Adobe Illustrator 24.2.3, SVG Export Plug-In . SVG Version: 6.00 Build 0)  -->
<svg version="1.1" id="katman_1" xmlns="http://www.w3.org/2000/svg" xmlns:xlink="http://www.w3.org/1999/xlink" x="0px" y="0px"
	 viewBox="0 0 74 47" style="enable-background:new 0 0 74 47;" xml:space="preserve">
<style type="text/css">
	.st0{fill:#1E376C;}
	.st1{clip-path:url(#SVGID_2_);fill:url(#SVGID_3_);}
	.st2{clip-path:url(#SVGID_5_);fill:url(#SVGID_6_);}
	.st3{fill:#B5B7B9;}
	.st4{clip-path:url(#SVGID_8_);fill:url(#SVGID_9_);}
	.st5{clip-path:url(#SVGID_11_);fill:url(#SVGID_12_);}
</style>
<g>
	<path class="st0" d="M11.2,33.1c-0.7-0.3-2.2-0.7-4-0.7c-3.4,0-5.4,1.6-6.1,5c-0.1,0.7-0.2,1.3-0.2,1.9c0,2.2,1.2,3.4,3.5,3.4
		c1.2,0,2.2-0.3,2.7-0.5c0.1,0,0.1,0,0.1,0c0,0,0.1,0.1,0,0.1l-0.1,0.3c-0.4,1.8-1.5,2.6-3.6,2.6c-1,0-2.1-0.4-2.8-0.7
		c-0.1-0.1-0.3-0.1-0.4,0c-0.1,0.1-0.2,0.2-0.3,0.3L0,45.9c0,0.2,0.1,0.4,0.3,0.5c0.5,0.2,2,0.6,3.7,0.6c3.3,0,5-1.3,5.7-4.4l1.9-9
		C11.6,33.4,11.5,33.2,11.2,33.1 M9,34.6l-1.2,5.8c0,0,0,0.1-0.1,0.1C7.2,40.7,6.3,41,5.3,41c-1.3,0-2-0.7-2-2.1
		c0-1.4,0.6-3.1,1.4-4c0.5-0.6,1.2-0.8,2.1-0.8c1,0,1.7,0.2,2.1,0.3C9,34.5,9,34.5,9,34.6"/>
	<path class="st0" d="M14.3,38.5c4.4,0,7-1.2,7.5-3.4c0-0.1,0-0.2,0-0.4c0-1.4-1.6-2.4-3.8-2.4c-3.7,0-6.3,2.9-6.3,7.1
		c0,2.4,1.2,3.5,3.9,3.5c1.9,0,3.4-0.5,3.9-0.7c0.1-0.1,0.2-0.2,0.3-0.3l0.2-0.8c0-0.2,0-0.3-0.2-0.5c-0.1-0.1-0.3-0.1-0.5-0.1
		c-0.7,0.3-1.8,0.6-2.8,0.6c-1.6,0-2.5-0.7-2.5-2c0-0.2,0-0.5,0.1-0.7C14.2,38.5,14.2,38.5,14.3,38.5 M14.6,36.7
		c0.5-1.7,1.7-2.7,3.2-2.7c1.2,0,1.8,0.3,1.8,0.9c0,0,0,0,0,0c0,0,0,0,0,0.1c0,0,0,0,0,0c-0.2,0.8-1.2,1.8-4.8,1.8
		c-0.1,0-0.1,0-0.1-0.1C14.6,36.8,14.6,36.8,14.6,36.7"/>
	<path class="st0" d="M28.3,32.4c-1.8,0-3.7,0.5-4.6,0.8c-0.2,0.1-0.3,0.2-0.3,0.3l-1.8,8.7c0,0.1,0,0.3,0.1,0.4
		c0.1,0.1,0.2,0.2,0.4,0.2h1.4c0.2,0,0.4-0.2,0.5-0.4l1.7-7.7c0,0,0-0.1,0.1-0.1c0.5-0.1,1.4-0.4,2.3-0.4c1.2,0,1.8,0.4,1.8,1.4
		c0,0.3,0,0.6-0.1,1l-1.2,5.6c0,0.1,0,0.3,0.1,0.4c0.1,0.1,0.2,0.2,0.4,0.2h1.4c0.2,0,0.4-0.2,0.5-0.4l1.4-6.6
		c0.1-0.3,0.1-0.6,0.1-0.8C32.2,33.4,30.8,32.4,28.3,32.4"/>
	<path class="st0" d="M43,32.8c-0.1-0.1-0.2-0.2-0.4-0.2h-1.4c-0.2,0-0.3,0.1-0.4,0.2l-3.9,7.4c0,0.1-0.1,0.1-0.1,0.1
		c0,0-0.1,0-0.1-0.1L35.8,33c0-0.2-0.2-0.4-0.5-0.4h-1.4c-0.1,0-0.3,0.1-0.4,0.2c-0.1,0.1-0.1,0.2-0.1,0.4l1.3,9.2
		c0,0.2,0.2,0.4,0.5,0.4h2.2c0.2,0,0.3-0.1,0.4-0.2l5.2-9.2C43.1,33.2,43.1,33,43,32.8"/>
	<path class="st0" d="M48.8,32.4c-3.7,0-6.3,2.9-6.3,7.1c0,2.4,1.2,3.5,3.9,3.5c1.9,0,3.4-0.5,3.9-0.7c0.1-0.1,0.2-0.2,0.3-0.3
		l0.2-0.8c0-0.2,0-0.3-0.2-0.5c-0.1-0.1-0.3-0.1-0.5-0.1c-0.7,0.3-1.8,0.6-2.8,0.6c-1.6,0-2.5-0.7-2.5-2c0-0.2,0-0.5,0.1-0.7
		c0-0.1,0.1-0.1,0.1-0.1c4.4,0,7-1.2,7.5-3.4c0-0.1,0-0.2,0-0.4C52.5,33.3,51,32.4,48.8,32.4 M45.3,36.7c0.5-1.7,1.7-2.7,3.2-2.7
		c1.2,0,1.8,0.3,1.8,0.9c0,0,0,0,0,0c0,0,0,0,0,0.1c0,0,0,0,0,0c-0.2,0.8-1.2,1.8-4.8,1.8c0,0,0,0,0,0c-0.1,0-0.1,0-0.1-0.1
		C45.3,36.8,45.3,36.8,45.3,36.7"/>
	<path class="st0" d="M59,32.4c-3.4,0-5.3,1.6-6,5c-0.2,0.7-0.3,1.4-0.3,2.1c0,2.5,1.2,3.5,4.1,3.5c1.8,0,3.1-0.4,4-1.2
		c1-0.9,1.7-2.2,2.1-4.3c0.1-0.7,0.2-1.2,0.2-1.6C63.1,33.6,61.7,32.4,59,32.4 M60.7,36c0,0.4-0.1,0.9-0.2,1.4
		c-0.6,2.7-1.6,3.8-3.4,3.8c-1.4,0-2-0.6-2-2c0.1-1.7,0.7-3.7,1.4-4.4c0.5-0.5,1.2-0.8,2.1-0.8C60.1,34.2,60.7,34.7,60.7,36"/>
	<path class="st0" d="M70.1,32.4c-1.8,0-3.7,0.5-4.6,0.8c-0.2,0.1-0.3,0.2-0.3,0.3l-1.8,8.7c0,0.1,0,0.3,0.1,0.4
		c0.1,0.1,0.2,0.2,0.4,0.2h1.4c0.2,0,0.4-0.2,0.5-0.4l1.7-7.7c0,0,0-0.1,0.1-0.1c0.5-0.1,1.4-0.4,2.3-0.4c1.2,0,1.8,0.4,1.8,1.4
		c0,0.3,0,0.6-0.1,1l-1.2,5.6c0,0.1,0,0.3,0.1,0.4c0.1,0.1,0.2,0.2,0.4,0.2h1.4c0.2,0,0.4-0.2,0.5-0.4l1.4-6.6
		C74,35.5,74,35.2,74,35C74,33.4,72.6,32.4,70.1,32.4"/>
	<g>
		<defs>
			<path id="SVGID_1_" d="M34,2.1c-0.3,0.2-0.6,0.5-0.8,0.7L33,3L32.9,3l-3.8,3.8h0l-1.3,1.3c-0.1,0.1-0.2,0.2-0.3,0.3
				c-3.2,3.4-2.5,8.9,1.5,11.3c0.4,0.2,0.8,0.4,1.2,0.6c0.7,0.3,1.4,0.3,2.1,0.3c0.8,0,1.6-0.1,2.3-0.4c-1.6,0-3.2-0.8-4.3-2.3
				c-0.4-0.6-0.7-1.3-0.8-2c-0.3-1.7,0.3-3.4,1.5-4.6l5.3-5.3c0.1-0.1,0.1-0.1,0.2-0.2c0,0,0,0,0.1,0c0,0,0.1-0.1,0.1-0.1
				c0,0,0,0,0.1,0c0,0,0,0,0.1-0.1l1.7-1.3l3.4-0.6l3.7,3l1.2,2.9c0.3,0,0.6,0,0.9-0.1c0.7-0.2,1.2-0.7,1.4-1.4
				c0.1-0.2,0.1-0.5,0.1-0.7c0,0,0,0,0,0c0-0.2,0-0.4-0.1-0.7c-0.5-1.4-1.3-2.7-2.3-3.8C44.9,1,42.5,0,39.9,0c0,0,0,0,0,0
				c0,0,0,0,0,0c-0.1,0-0.2,0-0.4,0C37.3,0,35.5,0.8,34,2.1"/>
		</defs>
		<clipPath id="SVGID_2_">
			<use xlink:href="#SVGID_1_"  style="overflow:visible;"/>
		</clipPath>
		
			<linearGradient id="SVGID_3_" gradientUnits="userSpaceOnUse" x1="-2084.8838" y1="393.4133" x2="-2084.7727" y2="393.4133" gradientTransform="matrix(213.3806 0 0 -213.3806 444899.3438 83957.0625)">
			<stop  offset="0" style="stop-color:#005745"/>
			<stop  offset="0.1007" style="stop-color:#006347"/>
			<stop  offset="0.2824" style="stop-color:#00834B"/>
			<stop  offset="0.4605" style="stop-color:#00A84F"/>
			<stop  offset="0.5317" style="stop-color:#0CAD58"/>
			<stop  offset="0.6608" style="stop-color:#2CB76E"/>
			<stop  offset="0.8316" style="stop-color:#60C991"/>
			<stop  offset="1" style="stop-color:#99DCB9"/>
		</linearGradient>
		<rect x="24.4" class="st1" width="24.8" height="20.6"/>
	</g>
	<g>
		<defs>
			<path id="SVGID_4_" d="M38.1,4c0,0-0.7,0.7-1.9,1.9c0.1-0.1,0.1-0.1,0.2-0.2c0,0,0,0,0.1,0c0,0,0.1-0.1,0.1-0.1c0,0,0,0,0.1,0
				c0.1-0.1,0.6-0.4,1.3-0.8c0.6-0.3,1.3-0.4,2-0.4c1.4,0,2.7,0.5,3.7,1.5c0.6,0.6,1,1.3,1.3,2.1c0.4,1.2,1.6,1.8,2.8,1.4
				c0.1,0,0.1,0,0.2-0.1c1.9-1-0.9-5.2-4-6.4c-0.7-0.3-1.3-0.4-1.9-0.4C39.7,2.6,38.1,4,38.1,4"/>
		</defs>
		<clipPath id="SVGID_5_">
			<use xlink:href="#SVGID_4_"  style="overflow:visible;"/>
		</clipPath>
		
			<linearGradient id="SVGID_6_" gradientUnits="userSpaceOnUse" x1="-2083.8647" y1="399.7775" x2="-2083.7537" y2="399.7775" gradientTransform="matrix(85.2814 121.6308 121.6308 -85.2814 129126.4219 287553.1563)">
			<stop  offset="0" style="stop-color:#005745"/>
			<stop  offset="1.343420e-03" style="stop-color:#005745"/>
			<stop  offset="0.2884" style="stop-color:#005A45"/>
			<stop  offset="0.4922" style="stop-color:#006347"/>
			<stop  offset="0.6703" style="stop-color:#007349"/>
			<stop  offset="0.8336" style="stop-color:#00894B"/>
			<stop  offset="0.9854" style="stop-color:#00A54F"/>
			<stop  offset="1" style="stop-color:#00A84F"/>
		</linearGradient>
		<polygon class="st2" points="45.3,-3.8 53.1,7.4 40.7,16.1 32.8,4.9 		"/>
	</g>
	<polygon class="st3" points="34.7,7.5 34.7,7.5 34.8,7.4 	"/>
	<path class="st3" d="M34.9,7.3L34.9,7.3L34.9,7.3z"/>
	<g>
		<defs>
			<path id="SVGID_7_" d="M43.2,11.8C43.2,11.8,43.2,11.8,43.2,11.8l-7,0c-1.2,0-2.2,1-2.2,2.2c0,1.2,1,2.2,2.2,2.2H41l0,0l0.6,0
				l-0.1,0.1l-0.6,1.1L38.3,20l-0.9,1.5l-6,0.7l-2.5-0.4l-3.1-2.7c0,0-0.6-1.7-0.8-2.3c-0.1-0.2-0.1-0.4-0.1-0.5
				c0.2,2.2,1.1,4.3,2.8,5.9c1.9,1.9,4.3,2.8,6.8,2.8c2.5,0,4.9-0.9,6.8-2.8l6.7-6.7c0.6-0.6,0.8-1.6,0.5-2.4c0-0.1-0.1-0.2-0.1-0.3
				c-0.1-0.2-0.3-0.4-0.6-0.6c-0.4-0.3-0.8-0.4-1.3-0.4H43.2z"/>
		</defs>
		<clipPath id="SVGID_8_">
			<use xlink:href="#SVGID_7_"  style="overflow:visible;"/>
		</clipPath>
		
			<linearGradient id="SVGID_9_" gradientUnits="userSpaceOnUse" x1="-2084.8657" y1="393.7201" x2="-2084.7546" y2="393.7201" gradientTransform="matrix(213.6994 0 0 -213.6994 445559.3438 84156.1563)">
			<stop  offset="0" style="stop-color:#1E376C"/>
			<stop  offset="0.4627" style="stop-color:#1E376C"/>
			<stop  offset="0.5445" style="stop-color:#2A4174"/>
			<stop  offset="0.6922" style="stop-color:#495C8A"/>
			<stop  offset="0.8875" style="stop-color:#7C88AD"/>
			<stop  offset="1" style="stop-color:#9DA3C3"/>
		</linearGradient>
		<rect x="24.8" y="11.8" class="st4" width="23.9" height="13.2"/>
	</g>
	<g>
		<defs>
			<path id="SVGID_10_" d="M41,16.2l-2.9,2.9l0,0c-0.1,0.1-0.2,0.2-0.3,0.3l0,0c-1,0.9-4.1,3.1-8,1.9c-4-1.2-5-4.9-5-5.1
				c0.2,2.2,1.1,4.3,2.8,6c0.1,0.1,0.2,0.2,0.3,0.3c0,0,0,0,0,0c0,0,0,0,0,0c1.8,1.4,3.3,1.7,5.4,1.7c2.3,0,4.6-1.1,6.4-2.8l4.2-4.2
				c0.4-0.4,0.1-1.2-0.5-1.2H41z"/>
		</defs>
		<clipPath id="SVGID_11_">
			<use xlink:href="#SVGID_10_"  style="overflow:visible;"/>
		</clipPath>
		
			<linearGradient id="SVGID_12_" gradientUnits="userSpaceOnUse" x1="-2093.2566" y1="399.9562" x2="-2093.1458" y2="399.9562" gradientTransform="matrix(-146.7958 152.0385 152.0385 146.7958 -368045.0625 259553.1875)">
			<stop  offset="0" style="stop-color:#1E376C"/>
			<stop  offset="6.820440e-04" style="stop-color:#1E376C"/>
			<stop  offset="0.4627" style="stop-color:#1E376C"/>
			<stop  offset="0.536" style="stop-color:#2A4376"/>
			<stop  offset="0.6689" style="stop-color:#4A6392"/>
			<stop  offset="0.8448" style="stop-color:#7D96BD"/>
			<stop  offset="1" style="stop-color:#B1C8E8"/>
		</linearGradient>
		<polygon class="st5" points="48.4,20.1 34.9,34 20.7,20.4 34.2,6.4 		"/>
	</g>
</g>
</svg>
