<?xml version="1.0" encoding="utf-8"?>
<!-- Generator: Adobe Illustrator 24.2.3, SVG Export Plug-In . SVG Version: 6.00 Build 0)  -->
<svg version="1.1" id="Camada_1" xmlns="http://www.w3.org/2000/svg" xmlns:xlink="http://www.w3.org/1999/xlink" x="0px" y="0px"
	 viewBox="0 0 65 32" style="enable-background:new 0 0 65 32;" xml:space="preserve">
<style type="text/css">
	.st0{clip-path:url(#SVGID_28_);}
	.st1{clip-path:url(#SVGID_32_);}
	.st2{clip-path:url(#SVGID_34_);}
	.st3{clip-path:url(#SVGID_38_);}
	.st4{clip-path:url(#SVGID_40_);}
	.st5{clip-path:url(#SVGID_44_);}
	.st6{clip-path:url(#SVGID_46_);}
	.st7{clip-path:url(#SVGID_50_);}
	.st8{clip-path:url(#SVGID_52_);}
	.st9{clip-path:url(#SVGID_56_);}
	.st10{clip-path:url(#SVGID_58_);}
	.st11{clip-path:url(#SVGID_62_);}
	.st12{clip-path:url(#SVGID_64_);}
	.st13{clip-path:url(#SVGID_68_);}
	.st14{clip-path:url(#SVGID_70_);}
	.st15{clip-path:url(#SVGID_74_);}
	.st16{clip-path:url(#SVGID_76_);}
	.st17{clip-path:url(#SVGID_80_);}
	.st18{clip-path:url(#SVGID_82_);}
	.st19{opacity:0.75;}
	.st20{clip-path:url(#SVGID_86_);fill:#FFFFFF;}
	.st21{fill:#FFFFFF;}
	.st22{clip-path:url(#SVGID_88_);fill:url(#SVGID_89_);}
	.st23{clip-path:url(#SVGID_91_);fill:#BD1622;}
	.st24{clip-path:url(#SVGID_93_);fill:url(#SVGID_94_);}
	.st25{clip-path:url(#SVGID_96_);}
	.st26{clip-path:url(#SVGID_98_);fill:url(#SVGID_99_);}
	.st27{clip-path:url(#SVGID_127_);}
	.st28{fill:#C42148;}
	.st29{fill:#575756;}
</style>
<g>
	<g>
		
			<image style="overflow:visible;opacity:0.75;" width="131" height="148" xlink:href="381C679F.png"  transform="matrix(0.24 0 0 0.24 41.7284 -4.0531)">
		</image>
		<g>
			<g>
				<g>
					<defs>
						<path id="SVGID_1_" d="M63.9,14.1h-0.3c0,0,0,0,0,0.1c0,1.1-0.4,2.1-2.3,3.8c-1.5,1.3-3.9,1.7-5.1,1.8c-0.1,0-0.2,0-0.3,0
							c-0.2,0-0.3,0-0.3,0v0.3v0.3v0.5v0.7v0.6v0.6v0.4c0-0.1,0.1-0.1,0.1-0.2c0.8-0.9,2.3-0.8,5.5-3c0.1-0.1,0.2-0.1,0.2-0.2
							c0,0,0.1-0.1,0.1-0.1c0.3-0.3,0.6-0.5,0.9-0.8c0.4-0.4,0.6-0.8,0.9-1.2c0.2-0.4,0.4-0.8,0.6-1.2c0.2-0.5,0.3-0.9,0.3-1.2
							c0-0.2,0.1-0.5,0.1-0.6c0-0.1,0-0.2,0-0.3c0-0.2,0-0.3,0-0.3H63.9z"/>
					</defs>
					<clipPath id="SVGID_2_">
						<use xlink:href="#SVGID_1_"  style="overflow:visible;"/>
					</clipPath>
				</g>
				<g>
					<defs>
						<path id="SVGID_3_" d="M63.7,11.7c0,0-0.1,0.1-0.1,0.2c0,0-0.1,0.1-0.1,0.1c0,0.1-0.1,0.1-0.1,0.2c-0.3,0.4-0.6,1-0.8,1.5
							c-0.1,0.2-0.1,0.5,0,0.6c0,0,0,0,0.1,0.1c0.1,0.1,0.2,0.1,0.3,0.1c0.1,0,0.2,0,0.3,0c0.1,0,0.3,0,0.4-0.1
							c0.1,0,0.2-0.1,0.2-0.1s0,0,0,0c0.1,0,0.2,0.1,0.3,0.1c0.1,0,0.3,0,0.4,0c0.1,0,0.2-0.1,0.3-0.1c0,0,0,0,0.1-0.1
							c0.1-0.1,0.1-0.3,0-0.6c-0.1-0.4-0.5-1-0.8-1.5c0-0.1-0.1-0.1-0.1-0.2c-0.1-0.1-0.1-0.2-0.2-0.2
							C63.8,11.7,63.8,11.7,63.7,11.7C63.8,11.7,63.8,11.6,63.7,11.7C63.8,11.6,63.8,11.7,63.7,11.7"/>
					</defs>
					<clipPath id="SVGID_4_">
						<use xlink:href="#SVGID_3_"  style="overflow:visible;"/>
					</clipPath>
				</g>
				<g>
					<defs>
						<path id="SVGID_5_" d="M47,14.1h-0.2c0,0,0,0.2,0,0.3c0,0.1,0,0.2,0,0.3c0,0.2,0,0.4,0.1,0.6c0.1,0.4,0.2,0.8,0.3,1.2
							c0.1,0.4,0.3,0.8,0.6,1.2c0.2,0.4,0.5,0.8,0.9,1.2c0.3,0.3,0.6,0.6,0.9,0.8c0,0,0.1,0.1,0.1,0.1c0.1,0.1,0.2,0.1,0.2,0.2
							c3.1,2.2,4.7,2.1,5.5,3c0,0,0.1,0.1,0.1,0.2v-0.4v-0.6v-0.6v-0.7v-0.5v-0.3v-0.3c0,0-0.1,0-0.3,0c-0.1,0-0.2,0-0.3,0
							c-1.2-0.1-3.6-0.5-5.1-1.8c-2-1.7-2.3-2.7-2.3-3.8c0,0,0,0,0-0.1H47z"/>
					</defs>
					<clipPath id="SVGID_6_">
						<use xlink:href="#SVGID_5_"  style="overflow:visible;"/>
					</clipPath>
				</g>
				<g>
					<defs>
						<path id="SVGID_7_" d="M47.1,11.7c0,0-0.1,0.1-0.1,0.2c0,0-0.1,0.1-0.1,0.1c0,0.1-0.1,0.1-0.1,0.2c-0.3,0.4-0.6,1-0.8,1.5
							c-0.1,0.2-0.1,0.5,0,0.6c0,0,0,0,0.1,0.1c0.1,0.1,0.2,0.1,0.3,0.1c0.1,0,0.2,0,0.3,0c0.1,0,0.3,0,0.4-0.1
							c0.1,0,0.2-0.1,0.2-0.1s0,0,0,0c0.1,0,0.2,0.1,0.3,0.1c0.1,0,0.3,0,0.4,0c0.1,0,0.2-0.1,0.3-0.1c0,0,0,0,0.1-0.1
							c0.1-0.1,0.1-0.3,0-0.6c-0.1-0.4-0.5-1-0.8-1.5c0-0.1-0.1-0.1-0.1-0.2c-0.1-0.1-0.1-0.2-0.2-0.2
							C47.2,11.7,47.1,11.7,47.1,11.7C47.1,11.7,47.1,11.6,47.1,11.7C47.1,11.6,47.1,11.7,47.1,11.7"/>
					</defs>
					<clipPath id="SVGID_8_">
						<use xlink:href="#SVGID_7_"  style="overflow:visible;"/>
					</clipPath>
				</g>
				<g>
					<defs>
						<path id="SVGID_9_" d="M54.2,2.1c0-0.7,0.6-1.3,1.3-1.3s1.3,0.6,1.3,1.3c0,0.7-0.6,1.3-1.3,1.3S54.2,2.8,54.2,2.1 M53.3,2.1
							c0,1.2,0.9,2.1,2.1,2.1c1.2,0,2.1-0.9,2.1-2.1c0-1.2-0.9-2.1-2.1-2.1C54.3,0,53.3,0.9,53.3,2.1"/>
					</defs>
					<clipPath id="SVGID_10_">
						<use xlink:href="#SVGID_9_"  style="overflow:visible;"/>
					</clipPath>
				</g>
				<g>
					<defs>
						<path id="SVGID_11_" d="M60.4,6.5h-0.5h-0.6h-3.8h-4.1h-0.3h-0.6c-0.2-0.2-0.4-0.4-0.7-0.4c-0.2,0-0.5,0.1-0.6,0.3
							c0,0-0.1,0.1-0.1,0.2c-0.1,0.1-0.1,0.2-0.1,0.4c0,0.1,0,0.2,0,0.3c0,0.1,0,0.1,0.1,0.2c0.1,0.3,0.4,0.5,0.7,0.5
							c0.3,0,0.5-0.1,0.7-0.4h0.6h0.3h4.1h3.8h0.6h0.5c0.2,0.2,0.4,0.4,0.7,0.4c0.3,0,0.6-0.2,0.7-0.5c0-0.1,0.1-0.1,0.1-0.2
							c0-0.1,0-0.2,0-0.3c0-0.1-0.1-0.3-0.1-0.4c0-0.1-0.1-0.1-0.1-0.2c-0.2-0.2-0.4-0.3-0.6-0.3C60.8,6.2,60.6,6.3,60.4,6.5"/>
					</defs>
					<clipPath id="SVGID_12_">
						<use xlink:href="#SVGID_11_"  style="overflow:visible;"/>
					</clipPath>
				</g>
				<g>
					<defs>
						<path id="SVGID_13_" d="M56.2,4.7c-0.1,0-0.2,0-0.3,0c-0.1,0-0.1,0-0.2,0c-0.1,0-0.2,0-0.3,0h-0.3h-0.5h-0.3v7.8v0.3
							c0,2.3-0.7,7-0.7,7s0.1,0.1,0.3,0.3c0.1,0.2,0.3,0.4,0.3,0.7c0.1,0.3,0.3,0.4,0.5,0.6c0.2,0.1,0.5,0.2,0.6,0.2
							c0.1,0,0.1,0,0.1,0c0,0,0.1,0,0.3-0.1c0.2-0.1,0.4-0.2,0.6-0.3c0.1-0.1,0.2-0.2,0.3-0.4c0-0.2,0.1-0.3,0.2-0.4
							c0.2-0.4,0.4-0.6,0.4-0.6s-0.7-4.6-0.7-7v-0.3V4.7H56.2z"/>
					</defs>
					<clipPath id="SVGID_14_">
						<use xlink:href="#SVGID_13_"  style="overflow:visible;"/>
					</clipPath>
				</g>
				<g>
					<defs>
						<path id="SVGID_15_" d="M54.6,6.2c-0.1,0-0.1,0-0.2,0h-0.2V7v0.7h0.2h0.2h0.3h0.6h0.3H56h0.3h0.2h0.2V7V6.2h-0.2h-0.2H56h-0.2
							h-0.3h-0.6C54.9,6.2,54.8,6.2,54.6,6.2C54.7,6.2,54.6,6.2,54.6,6.2"/>
					</defs>
					<clipPath id="SVGID_16_">
						<use xlink:href="#SVGID_15_"  style="overflow:visible;"/>
					</clipPath>
				</g>
				<g>
					<defs>
						<path id="SVGID_17_" d="M54.6,3.8c-0.1,0-0.1,0-0.2,0h-0.2v0.7v0.7h0.2h0.2h0.3h0.6h0.3H56h0.3h0.2h0.2V4.6V3.8h-0.2h-0.2H56
							h-0.2h-0.3h-0.6C54.9,3.8,54.8,3.8,54.6,3.8C54.7,3.8,54.6,3.8,54.6,3.8"/>
					</defs>
					<clipPath id="SVGID_18_">
						<use xlink:href="#SVGID_17_"  style="overflow:visible;"/>
					</clipPath>
				</g>
				<g>
					<g>
						<defs>
							<rect id="SVGID_19_" x="51.8" y="9.7" width="7.2" height="11.8"/>
						</defs>
						<clipPath id="SVGID_20_">
							<use xlink:href="#SVGID_19_"  style="overflow:visible;"/>
						</clipPath>
					</g>
				</g>
				<g>
					<defs>
						<path id="SVGID_21_" d="M52.5,15.6c-0.4,0.9-0.6,1.8-0.6,2.3c0,2,1.6,3.6,3.6,3.6c2,0,3.6-1.6,3.6-3.6c0-0.5-0.3-1.4-0.6-2.3
							H52.5z"/>
					</defs>
					<clipPath id="SVGID_22_">
						<use xlink:href="#SVGID_21_"  style="overflow:visible;"/>
					</clipPath>
				</g>
				<g>
					<g>
						<defs>
							<rect id="SVGID_23_" x="51.8" y="15.6" width="7.3" height="5.9"/>
						</defs>
						<clipPath id="SVGID_24_">
							<use xlink:href="#SVGID_23_"  style="overflow:visible;"/>
						</clipPath>
					</g>
				</g>
				<g>
					<defs>
						<path id="SVGID_25_" d="M55.5,15.2c-2.1,0-3,0.4-3,0.4s0.5,0.1,0.9,0.2c0.7,0.2,1.3,0.1,2.7,0.1c1.4,0,2.4-0.3,2.4-0.3
							S57.6,15.2,55.5,15.2C55.5,15.2,55.5,15.2,55.5,15.2"/>
					</defs>
					<clipPath id="SVGID_26_">
						<use xlink:href="#SVGID_25_"  style="overflow:visible;"/>
					</clipPath>
				</g>
				<g>
					<g>
						<defs>
							<rect id="SVGID_27_" x="55.8" y="12.1" width="2.8" height="9"/>
						</defs>
						<clipPath id="SVGID_28_">
							<use xlink:href="#SVGID_27_"  style="overflow:visible;"/>
						</clipPath>
						<g class="st0">
							<defs>
								<path id="SVGID_29_" d="M56.2,12.1c1.7,3,3.3,6.5,0.1,8.7c-0.2,0.1-0.3,0.2-0.5,0.3c0.3-0.1,0.6-0.2,0.9-0.4
									C60.2,18.5,57.9,15,56.2,12.1"/>
							</defs>
							<clipPath id="SVGID_30_">
								<use xlink:href="#SVGID_29_"  style="overflow:visible;"/>
							</clipPath>
						</g>
					</g>
				</g>
			</g>
			<g>
				<g>
					<defs>
						<path id="SVGID_31_" d="M63.9,14.1h-0.3c0,0,0,0,0,0.1c0,1.1-0.4,2.1-2.3,3.8c-1.5,1.3-3.9,1.7-5.1,1.8c-0.1,0-0.2,0-0.3,0
							c-0.2,0-0.3,0-0.3,0v0.3v0.3v0.5v0.7v0.6v0.6v0.4c0-0.1,0.1-0.1,0.1-0.2c0.8-0.9,2.3-0.8,5.5-3c0.1-0.1,0.2-0.1,0.2-0.2
							c0,0,0.1-0.1,0.1-0.1c0.3-0.3,0.6-0.5,0.9-0.8c0.4-0.4,0.6-0.8,0.9-1.2c0.2-0.4,0.4-0.8,0.6-1.2c0.2-0.5,0.3-0.9,0.3-1.2
							c0-0.2,0.1-0.5,0.1-0.6c0-0.1,0-0.2,0-0.3c0-0.2,0-0.3,0-0.3H63.9z"/>
					</defs>
					<clipPath id="SVGID_32_">
						<use xlink:href="#SVGID_31_"  style="overflow:visible;"/>
					</clipPath>
					<g class="st1">
						<g>
							<defs>
								<rect id="SVGID_33_" x="55.5" y="14.1" width="8.6" height="9.1"/>
							</defs>
							<clipPath id="SVGID_34_">
								<use xlink:href="#SVGID_33_"  style="overflow:visible;"/>
							</clipPath>
							<g class="st2">
								<defs>
									<rect id="SVGID_35_" x="55.5" y="14.1" width="8.6" height="9.1"/>
								</defs>
								<clipPath id="SVGID_36_">
									<use xlink:href="#SVGID_35_"  style="overflow:visible;"/>
								</clipPath>
								<g style="clip-path:url(#SVGID_36_);">
									
										<image style="overflow:visible;" width="19" height="20" xlink:href="381C679D.jpg"  transform="matrix(0.48 0 0 0.48 55.1684 13.9469)">
									</image>
								</g>
							</g>
						</g>
					</g>
				</g>
				<g>
					<defs>
						<path id="SVGID_37_" d="M63.7,11.7c0,0-0.1,0.1-0.1,0.2c0,0-0.1,0.1-0.1,0.1c0,0.1-0.1,0.1-0.1,0.2c-0.3,0.4-0.6,1-0.8,1.5
							c-0.1,0.2-0.1,0.5,0,0.6c0,0,0,0,0.1,0.1c0.1,0.1,0.2,0.1,0.3,0.1c0.1,0,0.2,0,0.3,0c0.1,0,0.3,0,0.4-0.1
							c0.1,0,0.2-0.1,0.2-0.1s0,0,0,0c0.1,0,0.2,0.1,0.3,0.1c0.1,0,0.3,0,0.4,0c0.1,0,0.2-0.1,0.3-0.1c0,0,0,0,0.1-0.1
							c0.1-0.1,0.1-0.3,0-0.6c-0.1-0.4-0.5-1-0.8-1.5c0-0.1-0.1-0.1-0.1-0.2c-0.1-0.1-0.1-0.2-0.2-0.2
							C63.8,11.7,63.8,11.7,63.7,11.7C63.8,11.7,63.8,11.6,63.7,11.7C63.8,11.6,63.8,11.7,63.7,11.7"/>
					</defs>
					<clipPath id="SVGID_38_">
						<use xlink:href="#SVGID_37_"  style="overflow:visible;"/>
					</clipPath>
					<g class="st3">
						<g>
							<defs>
								<rect id="SVGID_39_" x="62.5" y="11.6" width="2.5" height="2.8"/>
							</defs>
							<clipPath id="SVGID_40_">
								<use xlink:href="#SVGID_39_"  style="overflow:visible;"/>
							</clipPath>
							<g class="st4">
								<defs>
									<rect id="SVGID_41_" x="62.5" y="11.6" width="2.5" height="2.8"/>
								</defs>
								<clipPath id="SVGID_42_">
									<use xlink:href="#SVGID_41_"  style="overflow:visible;"/>
								</clipPath>
								<g style="clip-path:url(#SVGID_42_);">
									
										<image style="overflow:visible;" width="6" height="7" xlink:href="381C67A3.jpg"  transform="matrix(0.48 0 0 0.48 62.3684 11.5469)">
									</image>
								</g>
							</g>
						</g>
					</g>
				</g>
				<g>
					<defs>
						<path id="SVGID_43_" d="M47,14.1h-0.2c0,0,0,0.2,0,0.3c0,0.1,0,0.2,0,0.3c0,0.2,0,0.4,0.1,0.6c0.1,0.4,0.2,0.8,0.3,1.2
							c0.1,0.4,0.3,0.8,0.6,1.2c0.2,0.4,0.5,0.8,0.9,1.2c0.3,0.3,0.6,0.6,0.9,0.8c0,0,0.1,0.1,0.1,0.1c0.1,0.1,0.2,0.1,0.2,0.2
							c3.1,2.2,4.7,2.1,5.5,3c0,0,0.1,0.1,0.1,0.2v-0.4v-0.6v-0.6v-0.7v-0.5v-0.3v-0.3c0,0-0.1,0-0.3,0c-0.1,0-0.2,0-0.3,0
							c-1.2-0.1-3.6-0.5-5.1-1.8c-2-1.7-2.3-2.7-2.3-3.8c0,0,0,0,0-0.1H47z"/>
					</defs>
					<clipPath id="SVGID_44_">
						<use xlink:href="#SVGID_43_"  style="overflow:visible;"/>
					</clipPath>
					<g class="st5">
						<g>
							<defs>
								<rect id="SVGID_45_" x="46.8" y="14.1" width="8.6" height="9.1"/>
							</defs>
							<clipPath id="SVGID_46_">
								<use xlink:href="#SVGID_45_"  style="overflow:visible;"/>
							</clipPath>
							<g class="st6">
								<defs>
									<rect id="SVGID_47_" x="46.8" y="14.1" width="8.6" height="9.1"/>
								</defs>
								<clipPath id="SVGID_48_">
									<use xlink:href="#SVGID_47_"  style="overflow:visible;"/>
								</clipPath>
								<g style="clip-path:url(#SVGID_48_);">
									
										<image style="overflow:visible;" width="19" height="20" xlink:href="381C67A5.jpg"  transform="matrix(0.48 0 0 0.48 46.5284 13.9469)">
									</image>
								</g>
							</g>
						</g>
					</g>
				</g>
				<g>
					<defs>
						<path id="SVGID_49_" d="M47.1,11.7c0,0-0.1,0.1-0.1,0.2c0,0-0.1,0.1-0.1,0.1c0,0.1-0.1,0.1-0.1,0.2c-0.3,0.4-0.6,1-0.8,1.5
							c-0.1,0.2-0.1,0.5,0,0.6c0,0,0,0,0.1,0.1c0.1,0.1,0.2,0.1,0.3,0.1c0.1,0,0.2,0,0.3,0c0.1,0,0.3,0,0.4-0.1
							c0.1,0,0.2-0.1,0.2-0.1s0,0,0,0c0.1,0,0.2,0.1,0.3,0.1c0.1,0,0.3,0,0.4,0c0.1,0,0.2-0.1,0.3-0.1c0,0,0,0,0.1-0.1
							c0.1-0.1,0.1-0.3,0-0.6c-0.1-0.4-0.5-1-0.8-1.5c0-0.1-0.1-0.1-0.1-0.2c-0.1-0.1-0.1-0.2-0.2-0.2
							C47.2,11.7,47.1,11.7,47.1,11.7C47.1,11.7,47.1,11.6,47.1,11.7C47.1,11.6,47.1,11.7,47.1,11.7"/>
					</defs>
					<clipPath id="SVGID_50_">
						<use xlink:href="#SVGID_49_"  style="overflow:visible;"/>
					</clipPath>
					<g class="st7">
						<g>
							<defs>
								<rect id="SVGID_51_" x="45.9" y="11.6" width="2.5" height="2.8"/>
							</defs>
							<clipPath id="SVGID_52_">
								<use xlink:href="#SVGID_51_"  style="overflow:visible;"/>
							</clipPath>
							<g class="st8">
								<defs>
									<rect id="SVGID_53_" x="45.9" y="11.6" width="2.5" height="2.8"/>
								</defs>
								<clipPath id="SVGID_54_">
									<use xlink:href="#SVGID_53_"  style="overflow:visible;"/>
								</clipPath>
								<g style="clip-path:url(#SVGID_54_);">
									
										<image style="overflow:visible;" width="6" height="7" xlink:href="381C67A7.jpg"  transform="matrix(0.48 0 0 0.48 45.5684 11.5469)">
									</image>
								</g>
							</g>
						</g>
					</g>
				</g>
				<g>
					<defs>
						<path id="SVGID_55_" d="M54.2,2.1c0-0.7,0.6-1.3,1.3-1.3s1.3,0.6,1.3,1.3c0,0.7-0.6,1.3-1.3,1.3S54.2,2.8,54.2,2.1 M53.3,2.1
							c0,1.2,0.9,2.1,2.1,2.1c1.2,0,2.1-0.9,2.1-2.1c0-1.2-0.9-2.1-2.1-2.1C54.3,0,53.3,0.9,53.3,2.1"/>
					</defs>
					<clipPath id="SVGID_56_">
						<use xlink:href="#SVGID_55_"  style="overflow:visible;"/>
					</clipPath>
					<g class="st9">
						<g>
							<defs>
								
									<rect id="SVGID_57_" x="53.3" y="0" transform="matrix(0.9999 -1.623668e-02 1.623668e-02 0.9999 -2.668999e-02 0.9003)" width="4.3" height="4.3"/>
							</defs>
							<clipPath id="SVGID_58_">
								<use xlink:href="#SVGID_57_"  style="overflow:visible;"/>
							</clipPath>
							<g class="st10">
								<defs>
									
										<rect id="SVGID_59_" x="53.2" y="-0.1" transform="matrix(0.9999 -1.622583e-02 1.622583e-02 0.9999 -2.667642e-02 0.8997)" width="4.4" height="4.4"/>
								</defs>
								<clipPath id="SVGID_60_">
									<use xlink:href="#SVGID_59_"  style="overflow:visible;"/>
								</clipPath>
								<g style="clip-path:url(#SVGID_60_);">
									
										<image style="overflow:visible;" width="20" height="19" xlink:href="381C67A4.jpg"  transform="matrix(0.24 0 0 0.24 53.0084 -0.2131)">
									</image>
								</g>
							</g>
						</g>
					</g>
				</g>
				<g>
					<defs>
						<path id="SVGID_61_" d="M60.4,6.5h-0.5h-0.6h-3.8h-4.1h-0.3h-0.6c-0.2-0.2-0.4-0.4-0.7-0.4c-0.2,0-0.5,0.1-0.6,0.3
							c0,0-0.1,0.1-0.1,0.2c-0.1,0.1-0.1,0.2-0.1,0.4c0,0.1,0,0.2,0,0.3c0,0.1,0,0.1,0.1,0.2c0.1,0.3,0.4,0.5,0.7,0.5
							c0.3,0,0.5-0.1,0.7-0.4h0.6h0.3h4.1h3.8h0.6h0.5c0.2,0.2,0.4,0.4,0.7,0.4c0.3,0,0.6-0.2,0.7-0.5c0-0.1,0.1-0.1,0.1-0.2
							c0-0.1,0-0.2,0-0.3c0-0.1-0.1-0.3-0.1-0.4c0-0.1-0.1-0.1-0.1-0.2c-0.2-0.2-0.4-0.3-0.6-0.3C60.8,6.2,60.6,6.3,60.4,6.5"/>
					</defs>
					<clipPath id="SVGID_62_">
						<use xlink:href="#SVGID_61_"  style="overflow:visible;"/>
					</clipPath>
					<g class="st11">
						<g>
							<defs>
								<rect id="SVGID_63_" x="48.9" y="6.2" width="13.1" height="1.7"/>
							</defs>
							<clipPath id="SVGID_64_">
								<use xlink:href="#SVGID_63_"  style="overflow:visible;"/>
							</clipPath>
							<g class="st12">
								<defs>
									<rect id="SVGID_65_" x="48.9" y="6.2" width="13.1" height="1.7"/>
								</defs>
								<clipPath id="SVGID_66_">
									<use xlink:href="#SVGID_65_"  style="overflow:visible;"/>
								</clipPath>
								<g style="clip-path:url(#SVGID_66_);">
									
										<image style="overflow:visible;" width="29" height="5" xlink:href="381C67AC.jpg"  transform="matrix(0.48 0 0 0.48 48.4484 5.7869)">
									</image>
								</g>
							</g>
						</g>
					</g>
				</g>
				<g>
					<defs>
						<path id="SVGID_67_" d="M56.2,4.7c-0.1,0-0.2,0-0.3,0c-0.1,0-0.1,0-0.2,0c-0.1,0-0.2,0-0.3,0h-0.3h-0.5h-0.3v7.8v0.3
							c0,2.3-0.7,7-0.7,7s0.1,0.1,0.3,0.3c0.1,0.2,0.3,0.4,0.3,0.7c0.1,0.3,0.3,0.4,0.5,0.6c0.2,0.1,0.5,0.2,0.6,0.2
							c0.1,0,0.1,0,0.1,0c0,0,0.1,0,0.3-0.1c0.2-0.1,0.4-0.2,0.6-0.3c0.1-0.1,0.2-0.2,0.3-0.4c0-0.2,0.1-0.3,0.2-0.4
							c0.2-0.4,0.4-0.6,0.4-0.6s-0.7-4.6-0.7-7v-0.3V4.7H56.2z"/>
					</defs>
					<clipPath id="SVGID_68_">
						<use xlink:href="#SVGID_67_"  style="overflow:visible;"/>
					</clipPath>
					<g class="st13">
						<g>
							<defs>
								<rect id="SVGID_69_" x="53.7" y="4.7" width="3.6" height="16.8"/>
							</defs>
							<clipPath id="SVGID_70_">
								<use xlink:href="#SVGID_69_"  style="overflow:visible;"/>
							</clipPath>
							<g class="st14">
								<defs>
									<rect id="SVGID_71_" x="53.7" y="4.7" width="3.6" height="16.8"/>
								</defs>
								<clipPath id="SVGID_72_">
									<use xlink:href="#SVGID_71_"  style="overflow:visible;"/>
								</clipPath>
								<g style="clip-path:url(#SVGID_72_);">
									
										<image style="overflow:visible;" width="9" height="36" xlink:href="381C67AD.jpg"  transform="matrix(0.48 0 0 0.48 53.2484 4.3469)">
									</image>
								</g>
							</g>
						</g>
					</g>
				</g>
				<g>
					<defs>
						<path id="SVGID_73_" d="M54.6,6.2c-0.1,0-0.1,0-0.2,0h-0.2V7v0.7h0.2h0.2h0.3h0.6h0.3H56h0.3h0.2h0.2V7V6.2h-0.2h-0.2H56h-0.2
							h-0.3h-0.6C54.9,6.2,54.8,6.2,54.6,6.2C54.7,6.2,54.6,6.2,54.6,6.2"/>
					</defs>
					<clipPath id="SVGID_74_">
						<use xlink:href="#SVGID_73_"  style="overflow:visible;"/>
					</clipPath>
					<g class="st15">
						<g>
							<defs>
								<rect id="SVGID_75_" x="54.2" y="6.2" width="2.5" height="1.4"/>
							</defs>
							<clipPath id="SVGID_76_">
								<use xlink:href="#SVGID_75_"  style="overflow:visible;"/>
							</clipPath>
							<g class="st16">
								<defs>
									<rect id="SVGID_77_" x="54.2" y="6.2" width="2.5" height="1.4"/>
								</defs>
								<clipPath id="SVGID_78_">
									<use xlink:href="#SVGID_77_"  style="overflow:visible;"/>
								</clipPath>
								<g style="clip-path:url(#SVGID_78_);">
									
										<image style="overflow:visible;" width="6" height="4" xlink:href="381C67AF.jpg"  transform="matrix(0.48 0 0 0.48 54.2084 5.7869)">
									</image>
								</g>
							</g>
						</g>
					</g>
				</g>
				<g>
					<defs>
						<path id="SVGID_79_" d="M54.6,3.8c-0.1,0-0.1,0-0.2,0h-0.2v0.7v0.7h0.2h0.2h0.3h0.6h0.3H56h0.3h0.2h0.2V4.6V3.8h-0.2h-0.2H56
							h-0.2h-0.3h-0.6C54.9,3.8,54.8,3.8,54.6,3.8C54.7,3.8,54.6,3.8,54.6,3.8"/>
					</defs>
					<clipPath id="SVGID_80_">
						<use xlink:href="#SVGID_79_"  style="overflow:visible;"/>
					</clipPath>
					<g class="st17">
						<g>
							<defs>
								<rect id="SVGID_81_" x="54.2" y="3.8" width="2.5" height="1.4"/>
							</defs>
							<clipPath id="SVGID_82_">
								<use xlink:href="#SVGID_81_"  style="overflow:visible;"/>
							</clipPath>
							<g class="st18">
								<defs>
									<rect id="SVGID_83_" x="54.2" y="3.8" width="2.5" height="1.4"/>
								</defs>
								<clipPath id="SVGID_84_">
									<use xlink:href="#SVGID_83_"  style="overflow:visible;"/>
								</clipPath>
								<g style="clip-path:url(#SVGID_84_);">
									
										<image style="overflow:visible;" width="6" height="4" xlink:href="1C1AFA0C.jpg"  transform="matrix(0.48 0 0 0.48 54.2084 3.3869)">
									</image>
								</g>
							</g>
						</g>
					</g>
				</g>
				<g class="st19">
					<g>
						<defs>
							<rect id="SVGID_85_" x="51.8" y="9.7" width="7.2" height="11.8"/>
						</defs>
						<clipPath id="SVGID_86_">
							<use xlink:href="#SVGID_85_"  style="overflow:visible;"/>
						</clipPath>
						<path class="st20" d="M55.4,21.5c-2,0-3.6-1.6-3.6-3.6c0-2,3.6-8,3.6-8.1l0,0l0,0c0,0.1,3.6,6.1,3.6,8.1
							C59.1,19.8,57.4,21.5,55.4,21.5"/>
					</g>
				</g>
				<path class="st21" d="M55.5,21.8c-2.2,0-3.9-1.8-3.9-3.9c0-2.1,3.9-8.6,3.9-8.7l0,0l0,0c0,0.1,3.9,6.6,3.9,8.7
					C59.4,20.1,57.6,21.8,55.5,21.8 M55.5,9.3c-0.3,0.6-3.9,6.6-3.9,8.6c0,2.1,1.7,3.9,3.9,3.9c2.1,0,3.9-1.7,3.9-3.9
					C59.3,15.9,55.8,9.9,55.5,9.3"/>
				<path class="st21" d="M55.5,21.8c-2.2,0-3.9-1.8-3.9-3.9c0-2.1,3.9-8.6,3.9-8.7l0,0l0,0c0,0.1,3.9,6.6,3.9,8.7
					C59.4,20.1,57.6,21.8,55.5,21.8 M55.5,9.3c-0.3,0.6-3.9,6.6-3.9,8.6c0,2.1,1.7,3.9,3.9,3.9c2.1,0,3.9-1.7,3.9-3.9
					C59.3,15.9,55.8,9.9,55.5,9.3"/>
				<g>
					<defs>
						<path id="SVGID_87_" d="M52.5,15.6c-0.4,0.9-0.6,1.8-0.6,2.3c0,2,1.6,3.6,3.6,3.6c2,0,3.6-1.6,3.6-3.6c0-0.5-0.3-1.4-0.6-2.3
							H52.5z"/>
					</defs>
					<clipPath id="SVGID_88_">
						<use xlink:href="#SVGID_87_"  style="overflow:visible;"/>
					</clipPath>
					
						<linearGradient id="SVGID_89_" gradientUnits="userSpaceOnUse" x1="-939.9425" y1="482.3565" x2="-939.8819" y2="482.3565" gradientTransform="matrix(116.5193 -139.4213 -139.4213 -116.5193 176824.4688 -74821.7578)">
						<stop  offset="0" style="stop-color:#EA5843"/>
						<stop  offset="0.1771" style="stop-color:#EA5843"/>
						<stop  offset="0.4783" style="stop-color:#E73C30"/>
						<stop  offset="0.8607" style="stop-color:#E21313"/>
						<stop  offset="1" style="stop-color:#EA5843"/>
					</linearGradient>
					<polygon class="st22" points="48.9,19.1 54.8,12 62,18 56.1,25.1 					"/>
				</g>
				<g>
					<g>
						<defs>
							<rect id="SVGID_90_" x="51.8" y="15.6" width="7.3" height="5.9"/>
						</defs>
						<clipPath id="SVGID_91_">
							<use xlink:href="#SVGID_90_"  style="overflow:visible;"/>
						</clipPath>
						<path class="st23" d="M52.5,15.6c-0.4,0.9-0.6,1.8-0.6,2.3c0,2,1.6,3.6,3.6,3.6c2,0,3.6-1.6,3.6-3.6c0-0.5-0.3-1.4-0.6-2.3
							H52.5z"/>
					</g>
				</g>
				<g>
					<defs>
						<path id="SVGID_92_" d="M55.5,15.2c-2.1,0-3,0.4-3,0.4s0.5,0.1,0.9,0.2c0.7,0.2,1.3,0.1,2.7,0.1c1.4,0,2.4-0.3,2.4-0.3
							S57.6,15.2,55.5,15.2C55.5,15.2,55.5,15.2,55.5,15.2"/>
					</defs>
					<clipPath id="SVGID_93_">
						<use xlink:href="#SVGID_92_"  style="overflow:visible;"/>
					</clipPath>
					
						<linearGradient id="SVGID_94_" gradientUnits="userSpaceOnUse" x1="-940.9548" y1="438.2312" x2="-940.8942" y2="438.2312" gradientTransform="matrix(0 -15.3802 -15.3802 0 6795.5518 -14456.1045)">
						<stop  offset="0" style="stop-color:#EA5944"/>
						<stop  offset="0.1771" style="stop-color:#EA5944"/>
						<stop  offset="0.6118" style="stop-color:#CE302F"/>
						<stop  offset="0.8607" style="stop-color:#BD1622"/>
						<stop  offset="1" style="stop-color:#EA5944"/>
					</linearGradient>
					<rect x="52.5" y="15.2" class="st24" width="6" height="0.7"/>
				</g>
				<g>
					<g>
						<defs>
							<rect id="SVGID_95_" x="55.8" y="12.1" width="2.8" height="9"/>
						</defs>
						<clipPath id="SVGID_96_">
							<use xlink:href="#SVGID_95_"  style="overflow:visible;"/>
						</clipPath>
						<g class="st25">
							<defs>
								<path id="SVGID_97_" d="M56.2,12.1c1.7,3,3.3,6.5,0.1,8.7c-0.2,0.1-0.3,0.2-0.5,0.3c0.3-0.1,0.6-0.2,0.9-0.4
									C60.2,18.5,57.9,15,56.2,12.1"/>
							</defs>
							<clipPath id="SVGID_98_">
								<use xlink:href="#SVGID_97_"  style="overflow:visible;"/>
							</clipPath>
							
								<linearGradient id="SVGID_99_" gradientUnits="userSpaceOnUse" x1="-934.6725" y1="486.3033" x2="-934.6119" y2="486.3033" gradientTransform="matrix(85.1796 6.0269 6.0269 -85.1796 76738.7734 47072.6602)">
								<stop  offset="0" style="stop-color:#FFFFFF"/>
								<stop  offset="0.1771" style="stop-color:#FFFFFF"/>
								<stop  offset="0.2913" style="stop-color:#E2E2E2"/>
								<stop  offset="0.5397" style="stop-color:#989898"/>
								<stop  offset="0.9008" style="stop-color:#222222"/>
								<stop  offset="1" style="stop-color:#010101"/>
							</linearGradient>
							<polygon class="st26" points="55.8,11.8 60.9,12.2 60.2,21.4 55.1,21.1 							"/>
						</g>
					</g>
				</g>
			</g>
			<g>
				<g>
					<defs>
						<path id="SVGID_100_" d="M63.9,14.1h-0.3c0,0,0,0,0,0.1c0,1.1-0.4,2.1-2.3,3.8c-1.5,1.3-3.9,1.7-5.1,1.8c-0.1,0-0.2,0-0.3,0
							c-0.2,0-0.3,0-0.3,0v0.3v0.3v0.5v0.7v0.6v0.6v0.4c0-0.1,0.1-0.1,0.1-0.2c0.8-0.9,2.3-0.8,5.5-3c0.1-0.1,0.2-0.1,0.2-0.2
							c0,0,0.1-0.1,0.1-0.1c0.3-0.3,0.6-0.5,0.9-0.8c0.4-0.4,0.6-0.8,0.9-1.2c0.2-0.4,0.4-0.8,0.6-1.2c0.2-0.5,0.3-0.9,0.3-1.2
							c0-0.2,0.1-0.5,0.1-0.6c0-0.1,0-0.2,0-0.3c0-0.2,0-0.3,0-0.3H63.9z"/>
					</defs>
					<clipPath id="SVGID_101_">
						<use xlink:href="#SVGID_100_"  style="overflow:visible;"/>
					</clipPath>
				</g>
				<g>
					<defs>
						<path id="SVGID_102_" d="M63.7,11.7c0,0-0.1,0.1-0.1,0.2c0,0-0.1,0.1-0.1,0.1c0,0.1-0.1,0.1-0.1,0.2c-0.3,0.4-0.6,1-0.8,1.5
							c-0.1,0.2-0.1,0.5,0,0.6c0,0,0,0,0.1,0.1c0.1,0.1,0.2,0.1,0.3,0.1c0.1,0,0.2,0,0.3,0c0.1,0,0.3,0,0.4-0.1
							c0.1,0,0.2-0.1,0.2-0.1s0,0,0,0c0.1,0,0.2,0.1,0.3,0.1c0.1,0,0.3,0,0.4,0c0.1,0,0.2-0.1,0.3-0.1c0,0,0,0,0.1-0.1
							c0.1-0.1,0.1-0.3,0-0.6c-0.1-0.4-0.5-1-0.8-1.5c0-0.1-0.1-0.1-0.1-0.2c-0.1-0.1-0.1-0.2-0.2-0.2
							C63.8,11.7,63.8,11.7,63.7,11.7C63.8,11.7,63.8,11.6,63.7,11.7C63.8,11.6,63.8,11.7,63.7,11.7"/>
					</defs>
					<clipPath id="SVGID_103_">
						<use xlink:href="#SVGID_102_"  style="overflow:visible;"/>
					</clipPath>
				</g>
				<g>
					<defs>
						<path id="SVGID_104_" d="M47,14.1h-0.2c0,0,0,0.2,0,0.3c0,0.1,0,0.2,0,0.3c0,0.2,0,0.4,0.1,0.6c0.1,0.4,0.2,0.8,0.3,1.2
							c0.1,0.4,0.3,0.8,0.6,1.2c0.2,0.4,0.5,0.8,0.9,1.2c0.3,0.3,0.6,0.6,0.9,0.8c0,0,0.1,0.1,0.1,0.1c0.1,0.1,0.2,0.1,0.2,0.2
							c3.1,2.2,4.7,2.1,5.5,3c0,0,0.1,0.1,0.1,0.2v-0.4v-0.6v-0.6v-0.7v-0.5v-0.3v-0.3c0,0-0.1,0-0.3,0c-0.1,0-0.2,0-0.3,0
							c-1.2-0.1-3.6-0.5-5.1-1.8c-2-1.7-2.3-2.7-2.3-3.8c0,0,0,0,0-0.1H47z"/>
					</defs>
					<clipPath id="SVGID_105_">
						<use xlink:href="#SVGID_104_"  style="overflow:visible;"/>
					</clipPath>
				</g>
				<g>
					<defs>
						<path id="SVGID_106_" d="M47.1,11.7c0,0-0.1,0.1-0.1,0.2c0,0-0.1,0.1-0.1,0.1c0,0.1-0.1,0.1-0.1,0.2c-0.3,0.4-0.6,1-0.8,1.5
							c-0.1,0.2-0.1,0.5,0,0.6c0,0,0,0,0.1,0.1c0.1,0.1,0.2,0.1,0.3,0.1c0.1,0,0.2,0,0.3,0c0.1,0,0.3,0,0.4-0.1
							c0.1,0,0.2-0.1,0.2-0.1s0,0,0,0c0.1,0,0.2,0.1,0.3,0.1c0.1,0,0.3,0,0.4,0c0.1,0,0.2-0.1,0.3-0.1c0,0,0,0,0.1-0.1
							c0.1-0.1,0.1-0.3,0-0.6c-0.1-0.4-0.5-1-0.8-1.5c0-0.1-0.1-0.1-0.1-0.2c-0.1-0.1-0.1-0.2-0.2-0.2
							C47.2,11.7,47.1,11.7,47.1,11.7C47.1,11.7,47.1,11.6,47.1,11.7C47.1,11.6,47.1,11.7,47.1,11.7"/>
					</defs>
					<clipPath id="SVGID_107_">
						<use xlink:href="#SVGID_106_"  style="overflow:visible;"/>
					</clipPath>
				</g>
				<g>
					<defs>
						<path id="SVGID_108_" d="M54.2,2.1c0-0.7,0.6-1.3,1.3-1.3s1.3,0.6,1.3,1.3c0,0.7-0.6,1.3-1.3,1.3S54.2,2.8,54.2,2.1 M53.3,2.1
							c0,1.2,0.9,2.1,2.1,2.1c1.2,0,2.1-0.9,2.1-2.1c0-1.2-0.9-2.1-2.1-2.1C54.3,0,53.3,0.9,53.3,2.1"/>
					</defs>
					<clipPath id="SVGID_109_">
						<use xlink:href="#SVGID_108_"  style="overflow:visible;"/>
					</clipPath>
				</g>
				<g>
					<defs>
						<path id="SVGID_110_" d="M60.4,6.5h-0.5h-0.6h-3.8h-4.1h-0.3h-0.6c-0.2-0.2-0.4-0.4-0.7-0.4c-0.2,0-0.5,0.1-0.6,0.3
							c0,0-0.1,0.1-0.1,0.2c-0.1,0.1-0.1,0.2-0.1,0.4c0,0.1,0,0.2,0,0.3c0,0.1,0,0.1,0.1,0.2c0.1,0.3,0.4,0.5,0.7,0.5
							c0.3,0,0.5-0.1,0.7-0.4h0.6h0.3h4.1h3.8h0.6h0.5c0.2,0.2,0.4,0.4,0.7,0.4c0.3,0,0.6-0.2,0.7-0.5c0-0.1,0.1-0.1,0.1-0.2
							c0-0.1,0-0.2,0-0.3c0-0.1-0.1-0.3-0.1-0.4c0-0.1-0.1-0.1-0.1-0.2c-0.2-0.2-0.4-0.3-0.6-0.3C60.8,6.2,60.6,6.3,60.4,6.5"/>
					</defs>
					<clipPath id="SVGID_111_">
						<use xlink:href="#SVGID_110_"  style="overflow:visible;"/>
					</clipPath>
				</g>
				<g>
					<defs>
						<path id="SVGID_112_" d="M56.2,4.7c-0.1,0-0.2,0-0.3,0c-0.1,0-0.1,0-0.2,0c-0.1,0-0.2,0-0.3,0h-0.3h-0.5h-0.3v7.8v0.3
							c0,2.3-0.7,7-0.7,7s0.1,0.1,0.3,0.3c0.1,0.2,0.3,0.4,0.3,0.7c0.1,0.3,0.3,0.4,0.5,0.6c0.2,0.1,0.5,0.2,0.6,0.2
							c0.1,0,0.1,0,0.1,0c0,0,0.1,0,0.3-0.1c0.2-0.1,0.4-0.2,0.6-0.3c0.1-0.1,0.2-0.2,0.3-0.4c0-0.2,0.1-0.3,0.2-0.4
							c0.2-0.4,0.4-0.6,0.4-0.6s-0.7-4.6-0.7-7v-0.3V4.7H56.2z"/>
					</defs>
					<clipPath id="SVGID_113_">
						<use xlink:href="#SVGID_112_"  style="overflow:visible;"/>
					</clipPath>
				</g>
				<g>
					<defs>
						<path id="SVGID_114_" d="M54.6,6.2c-0.1,0-0.1,0-0.2,0h-0.2V7v0.7h0.2h0.2h0.3h0.6h0.3H56h0.3h0.2h0.2V7V6.2h-0.2h-0.2H56
							h-0.2h-0.3h-0.6C54.9,6.2,54.8,6.2,54.6,6.2C54.7,6.2,54.6,6.2,54.6,6.2"/>
					</defs>
					<clipPath id="SVGID_115_">
						<use xlink:href="#SVGID_114_"  style="overflow:visible;"/>
					</clipPath>
				</g>
				<g>
					<defs>
						<path id="SVGID_116_" d="M54.6,3.8c-0.1,0-0.1,0-0.2,0h-0.2v0.7v0.7h0.2h0.2h0.3h0.6h0.3H56h0.3h0.2h0.2V4.6V3.8h-0.2h-0.2H56
							h-0.2h-0.3h-0.6C54.9,3.8,54.8,3.8,54.6,3.8C54.7,3.8,54.6,3.8,54.6,3.8"/>
					</defs>
					<clipPath id="SVGID_117_">
						<use xlink:href="#SVGID_116_"  style="overflow:visible;"/>
					</clipPath>
				</g>
				<g>
					<g>
						<defs>
							<rect id="SVGID_118_" x="51.8" y="9.7" width="7.2" height="11.8"/>
						</defs>
						<clipPath id="SVGID_119_">
							<use xlink:href="#SVGID_118_"  style="overflow:visible;"/>
						</clipPath>
					</g>
				</g>
				<g>
					<defs>
						<path id="SVGID_120_" d="M52.5,15.6c-0.4,0.9-0.6,1.8-0.6,2.3c0,2,1.6,3.6,3.6,3.6c2,0,3.6-1.6,3.6-3.6c0-0.5-0.3-1.4-0.6-2.3
							H52.5z"/>
					</defs>
					<clipPath id="SVGID_121_">
						<use xlink:href="#SVGID_120_"  style="overflow:visible;"/>
					</clipPath>
				</g>
				<g>
					<g>
						<defs>
							<rect id="SVGID_122_" x="51.8" y="15.6" width="7.3" height="5.9"/>
						</defs>
						<clipPath id="SVGID_123_">
							<use xlink:href="#SVGID_122_"  style="overflow:visible;"/>
						</clipPath>
					</g>
				</g>
				<g>
					<defs>
						<path id="SVGID_124_" d="M55.5,15.2c-2.1,0-3,0.4-3,0.4s0.5,0.1,0.9,0.2c0.7,0.2,1.3,0.1,2.7,0.1c1.4,0,2.4-0.3,2.4-0.3
							S57.6,15.2,55.5,15.2C55.5,15.2,55.5,15.2,55.5,15.2"/>
					</defs>
					<clipPath id="SVGID_125_">
						<use xlink:href="#SVGID_124_"  style="overflow:visible;"/>
					</clipPath>
				</g>
				<g>
					<g>
						<defs>
							<rect id="SVGID_126_" x="55.8" y="12.1" width="2.8" height="9"/>
						</defs>
						<clipPath id="SVGID_127_">
							<use xlink:href="#SVGID_126_"  style="overflow:visible;"/>
						</clipPath>
						<g class="st27">
							<defs>
								<path id="SVGID_128_" d="M56.2,12.1c1.7,3,3.3,6.5,0.1,8.7c-0.2,0.1-0.3,0.2-0.5,0.3c0.3-0.1,0.6-0.2,0.9-0.4
									C60.2,18.5,57.9,15,56.2,12.1"/>
							</defs>
							<clipPath id="SVGID_129_">
								<use xlink:href="#SVGID_128_"  style="overflow:visible;"/>
							</clipPath>
						</g>
					</g>
				</g>
			</g>
		</g>
	</g>
	<path class="st28" d="M8,16.4c-0.2,1-0.6,1.8-1.4,2.3c-0.7,0.5-1.6,0.8-2.6,0.8H0V8.6h4.1c1,0,1.9,0.3,2.6,0.8
		c0.8,0.6,1.2,1.3,1.4,2.3C8.1,12,8.1,12.8,8.1,14S8.1,16.1,8,16.4z M5.2,11.6C4.9,11.2,4.5,11,3.9,11H2.7v6.1h1.2
		c0.6,0,1-0.2,1.3-0.6c0.2-0.2,0.2-0.6,0.3-1.2V14C5.4,12.7,5.4,11.9,5.2,11.6z"/>
	<path class="st28" d="M10,19.5V8.6h7.4V11h-4.7v1.8h4.1v2.4h-4.1v1.9h4.7v2.4H10z"/>
	<path class="st28" d="M26.8,19.5v-5.2L25.3,17h-1.7L22,14.3v5.2h-2.7V8.6H22l2.5,4.8l2.5-4.8h2.6v10.9H26.8z"/>
	<path class="st28" d="M34.4,5.3v2.2h-2.7V5.3H34.4z M31.7,19.5V8.6h2.7v10.9H31.7z"/>
	<path class="st28" d="M42.2,19.5l-1.9-4.1h-0.9v4.1h-2.7V8.6H41c1.1,0,1.9,0.3,2.7,1c0.7,0.6,1.1,1.5,1.1,2.5
		c0,1.3-0.6,2.3-1.8,2.9l2.4,4.6H42.2z M40.8,11h-1.5v2.2h1.5c0.7,0,1.2-0.5,1.2-1.1C42,11.5,41.5,11,40.8,11z"/>
	<path class="st29" d="M27.5,28.8c-0.1,0.8-0.5,1.5-1,2c-0.8,0.8-1.8,1.2-3.1,1.2c-1.2,0-2.2-0.4-3.1-1.2c-0.5-0.5-0.8-1.2-1-2
		c-0.1-0.5-0.1-1.2-0.1-2.3s0-1.9,0.1-2.3c0.1-0.8,0.5-1.5,1-2c0.8-0.8,1.8-1.2,3.1-1.2c1.2,0,2.2,0.4,3.1,1.2c0.5,0.5,0.8,1.2,1,2
		c0.1,0.5,0.1,1.2,0.1,2.3S27.6,28.4,27.5,28.8z M24.8,24.5c-0.2-0.8-0.6-1.2-1.4-1.2c-0.7,0-1.2,0.4-1.4,1.2c-0.1,0.3-0.1,1-0.1,2
		c0,1,0,1.7,0.1,2c0.2,0.8,0.6,1.2,1.4,1.2c0.7,0,1.2-0.4,1.4-1.2c0.1-0.3,0.1-1,0.1-2C25,25.5,24.9,24.8,24.8,24.5z"/>
	<path class="st29" d="M34.1,31.9l-1.7-3l-0.5,0.5v2.5h-2.5V21h2.5v5.6l2.2-2.9h3l-3,3.4l3.1,4.8H34.1z"/>
	<path class="st29" d="M42.7,31.9v-0.7c-0.5,0.5-1.2,0.8-1.9,0.8c-0.9,0-1.6-0.3-2-0.9c-0.4-0.6-0.7-1.3-0.7-2.2v-5.3h2.5v4.9
		c0,0.7,0.4,1.1,1,1.1c0.6,0,1-0.5,1-1.1v-4.9h2.5v8.3H42.7z"/>
	<path class="st29" d="M49.5,31.9c-1.5,0-2.6-1-2.6-2.4V21h2.5v8.3c0,0.3,0.2,0.5,0.5,0.5h0.9v2.1H49.5z"/>
	<path class="st29" d="M56.8,31.9v-0.7c-0.5,0.5-1.2,0.8-1.9,0.8c-0.9,0-1.6-0.3-2-0.9c-0.4-0.6-0.7-1.3-0.7-2.2v-5.3h2.5v4.9
		c0,0.7,0.4,1.1,1,1.1c0.6,0,1-0.5,1-1.1v-4.9h2.5v8.3H56.8z"/>
	<rect x="35.7" y="13.2" class="st28" width="1.4" height="2.2"/>
	<rect x="9.2" y="12.8" class="st28" width="1.4" height="2.4"/>
	<g>
		<path class="st28" d="M8,16.4c-0.2,1-0.6,1.8-1.4,2.3c-0.7,0.5-1.6,0.8-2.6,0.8H0V8.6h4.1c1,0,1.9,0.3,2.6,0.8
			c0.8,0.6,1.2,1.3,1.4,2.3C8.1,12,8.1,12.8,8.1,14S8.1,16.1,8,16.4z M5.2,11.6C4.9,11.2,4.5,11,3.9,11H2.7v6.1h1.2
			c0.6,0,1-0.2,1.3-0.6c0.2-0.2,0.2-0.6,0.3-1.2V14C5.4,12.7,5.4,11.9,5.2,11.6z"/>
		<path class="st28" d="M10,19.5V8.6h7.4V11h-4.7v1.8h4.1v2.4h-4.1v1.9h4.7v2.4H10z"/>
		<path class="st28" d="M26.8,19.5v-5.2L25.3,17h-1.7L22,14.3v5.2h-2.7V8.6H22l2.5,4.8l2.5-4.8h2.6v10.9H26.8z"/>
		<path class="st28" d="M34.4,5.3v2.2h-2.7V5.3H34.4z M31.7,19.5V8.6h2.7v10.9H31.7z"/>
		<path class="st28" d="M42.2,19.5l-1.9-4.1h-0.9v4.1h-2.7V8.6H41c1.1,0,1.9,0.3,2.7,1c0.7,0.6,1.1,1.5,1.1,2.5
			c0,1.3-0.6,2.3-1.8,2.9l2.4,4.6H42.2z M40.8,11h-1.5v2.2h1.5c0.7,0,1.2-0.5,1.2-1.1C42,11.5,41.5,11,40.8,11z"/>
	</g>
	<g>
		<path class="st29" d="M27.5,28.8c-0.1,0.8-0.5,1.5-1,2c-0.8,0.8-1.8,1.2-3.1,1.2c-1.2,0-2.2-0.4-3.1-1.2c-0.5-0.5-0.8-1.2-1-2
			c-0.1-0.5-0.1-1.2-0.1-2.3s0-1.9,0.1-2.3c0.1-0.8,0.5-1.5,1-2c0.8-0.8,1.8-1.2,3.1-1.2c1.2,0,2.2,0.4,3.1,1.2c0.5,0.5,0.8,1.2,1,2
			c0.1,0.5,0.1,1.2,0.1,2.3S27.6,28.4,27.5,28.8z M24.8,24.5c-0.2-0.8-0.6-1.2-1.4-1.2c-0.7,0-1.2,0.4-1.4,1.2c-0.1,0.3-0.1,1-0.1,2
			c0,1,0,1.7,0.1,2c0.2,0.8,0.6,1.2,1.4,1.2c0.7,0,1.2-0.4,1.4-1.2c0.1-0.3,0.1-1,0.1-2C25,25.5,24.9,24.8,24.8,24.5z"/>
		<path class="st29" d="M34.1,31.9l-1.7-3l-0.5,0.5v2.5h-2.5V21h2.5v5.6l2.2-2.9h3l-3,3.4l3.1,4.8H34.1z"/>
		<path class="st29" d="M42.7,31.9v-0.7c-0.5,0.5-1.2,0.8-1.9,0.8c-0.9,0-1.6-0.3-2-0.9c-0.4-0.6-0.7-1.3-0.7-2.2v-5.3h2.5v4.9
			c0,0.7,0.4,1.1,1,1.1c0.6,0,1-0.5,1-1.1v-4.9h2.5v8.3H42.7z"/>
		<path class="st29" d="M49.5,31.9c-1.5,0-2.6-1-2.6-2.4V21h2.5v8.3c0,0.3,0.2,0.5,0.5,0.5h0.9v2.1H49.5z"/>
		<path class="st29" d="M56.8,31.9v-0.7c-0.5,0.5-1.2,0.8-1.9,0.8c-0.9,0-1.6-0.3-2-0.9c-0.4-0.6-0.7-1.3-0.7-2.2v-5.3h2.5v4.9
			c0,0.7,0.4,1.1,1,1.1c0.6,0,1-0.5,1-1.1v-4.9h2.5v8.3H56.8z"/>
	</g>
	<rect x="35.7" y="13.2" class="st28" width="1.4" height="2.2"/>
	<rect x="9.2" y="12.8" class="st28" width="1.4" height="2.4"/>
</g>
</svg>
